<svg width="76" height="76" viewBox="0 0 76 76" fill="none" xmlns="http://www.w3.org/2000/svg">
<path d="M61.75 4.75H17.8125C15.9228 4.75 14.1106 5.50067 12.7744 6.83686C11.4382 8.17306 10.6875 9.98533 10.6875 11.875V65.3125C10.7491 66.9149 11.4317 68.4304 12.5908 69.5386C13.7499 70.6467 15.2946 71.2604 16.8981 71.25H39.1875C39.5024 71.25 39.8045 71.1249 40.0272 70.9022C40.2499 70.6795 40.375 70.3774 40.375 70.0625C40.375 69.7476 40.2499 69.4455 40.0272 69.2228C39.8045 69.0001 39.5024 68.875 39.1875 68.875H16.8981C15.9223 68.8919 14.9779 68.5304 14.2628 67.8662C13.5478 67.2021 13.1176 66.2869 13.0625 65.3125V64.9919C13.0793 64.7502 13.1231 64.5112 13.1931 64.2794C13.2342 64.1582 13.2818 64.0392 13.3356 63.9231C13.3356 63.8281 13.4187 63.7331 13.4544 63.65C13.6262 63.3456 13.8335 63.0626 14.0719 62.8069C14.4056 62.4696 14.8034 62.2023 15.2418 62.0208C15.6802 61.8393 16.1505 61.7473 16.625 61.75H61.75C61.9736 61.7504 62.1966 61.7265 62.415 61.6787H62.6288L62.9375 61.5956V62.9375C62.9375 63.2524 62.8124 63.5545 62.5897 63.7772C62.367 63.9999 62.0649 64.125 61.75 64.125H16.625C16.3101 64.125 16.008 64.2501 15.7853 64.4728C15.5626 64.6955 15.4375 64.9976 15.4375 65.3125C15.4375 65.6274 15.5626 65.9295 15.7853 66.1522C16.008 66.3749 16.3101 66.5 16.625 66.5H61.75C62.1551 66.4968 62.5567 66.4245 62.9375 66.2863V67.6875C62.9375 68.0024 62.8124 68.3045 62.5897 68.5272C62.367 68.7499 62.0649 68.875 61.75 68.875H49.875C49.5601 68.875 49.258 69.0001 49.0353 69.2228C48.8126 69.4455 48.6875 69.7476 48.6875 70.0625C48.6875 70.3774 48.8126 70.6795 49.0353 70.9022C49.258 71.1249 49.5601 71.25 49.875 71.25H61.75C62.6948 71.25 63.601 70.8747 64.2691 70.2066C64.9372 69.5385 65.3125 68.6323 65.3125 67.6875V8.3125C65.3125 7.36767 64.9372 6.46153 64.2691 5.79343C63.601 5.12533 62.6948 4.75 61.75 4.75ZM15.5563 59.4819L15.2237 59.565C14.9855 59.6199 14.7514 59.6913 14.5231 59.7788C14.4044 59.7788 14.2856 59.8737 14.1669 59.9212C13.9549 60.0203 13.7488 60.1313 13.5494 60.2538L13.2288 60.4556L13.0625 60.5625V11.875C13.0625 10.6152 13.5629 9.40704 14.4537 8.51624C15.3445 7.62544 16.5527 7.125 17.8125 7.125V59.375H16.625C16.266 59.3741 15.9079 59.4099 15.5563 59.4819ZM20.1875 59.375V7.125H61.75C62.0649 7.125 62.367 7.25011 62.5897 7.47281C62.8124 7.69551 62.9375 7.99756 62.9375 8.3125V58.1875C62.9375 58.5024 62.8124 58.8045 62.5897 59.0272C62.367 59.2499 62.0649 59.375 61.75 59.375H20.1875Z" fill="black"/>
<path d="M54.625 16.625H28.5C28.1851 16.625 27.883 16.7501 27.6603 16.9728C27.4376 17.1955 27.3125 17.4976 27.3125 17.8125V26.125C27.3125 26.4399 27.4376 26.742 27.6603 26.9647C27.883 27.1874 28.1851 27.3125 28.5 27.3125H54.625C54.9399 27.3125 55.242 27.1874 55.4647 26.9647C55.6874 26.742 55.8125 26.4399 55.8125 26.125V17.8125C55.8125 17.4976 55.6874 17.1955 55.4647 16.9728C55.242 16.7501 54.9399 16.625 54.625 16.625ZM53.4375 24.9375H29.6875V19H53.4375V24.9375ZM52.25 45.125H30.875C30.5601 45.125 30.258 45.2501 30.0353 45.4728C29.8126 45.6955 29.6875 45.9976 29.6875 46.3125C29.6875 46.6274 29.8126 46.9295 30.0353 47.1522C30.258 47.3749 30.5601 47.5 30.875 47.5H52.25C52.5649 47.5 52.867 47.3749 53.0897 47.1522C53.3124 46.9295 53.4375 46.6274 53.4375 46.3125C53.4375 45.9976 53.3124 45.6955 53.0897 45.4728C52.867 45.2501 52.5649 45.125 52.25 45.125ZM52.25 51.0625H30.875C30.5601 51.0625 30.258 51.1876 30.0353 51.4103C29.8126 51.633 29.6875 51.9351 29.6875 52.25C29.6875 52.5649 29.8126 52.867 30.0353 53.0897C30.258 53.3124 30.5601 53.4375 30.875 53.4375H52.25C52.5649 53.4375 52.867 53.3124 53.0897 53.0897C53.3124 52.867 53.4375 52.5649 53.4375 52.25C53.4375 51.9351 53.3124 51.633 53.0897 51.4103C52.867 51.1876 52.5649 51.0625 52.25 51.0625ZM45.125 68.875H43.9375C43.6226 68.875 43.3205 69.0001 43.0978 69.2228C42.8751 69.4455 42.75 69.7476 42.75 70.0625C42.75 70.3774 42.8751 70.6795 43.0978 70.9022C43.3205 71.1249 43.6226 71.25 43.9375 71.25H45.125C45.4399 71.25 45.742 71.1249 45.9647 70.9022C46.1874 70.6795 46.3125 70.3774 46.3125 70.0625C46.3125 69.7476 46.1874 69.4455 45.9647 69.2228C45.742 69.0001 45.4399 68.875 45.125 68.875Z" fill="black"/>
</svg>
