<svg width="77" height="77" viewBox="0 0 77 77" fill="none" xmlns="http://www.w3.org/2000/svg">
<path d="M61.9463 73.2704C59.6604 73.2704 57.3594 73.2704 55.0735 73.2704C49.9602 73.2704 44.8319 73.2704 39.7186 73.2704C34.4098 73.2704 29.101 73.2704 23.7922 73.2704C20.9348 73.2704 18.0774 73.2854 15.22 73.2704C13.7762 73.2554 12.7987 72.2327 12.7836 70.804C12.7836 70.037 12.7836 69.255 12.7836 68.488C12.7836 64.8485 12.7836 61.2091 12.7836 57.5696C12.7836 52.2909 12.7836 47.0122 12.7836 41.7335C12.7836 36.1991 12.7836 30.6497 12.7836 25.1153C12.7836 20.6938 12.7836 16.2724 12.7836 11.8358C12.7836 9.91083 12.7385 7.9708 12.7836 6.0458C12.8137 4.76748 13.7762 3.7749 15.0696 3.74482C15.235 3.74482 15.4155 3.74482 15.5809 3.74482C16.784 3.74482 17.9871 3.74482 19.1903 3.74482C23.8825 3.74482 28.5897 3.74482 33.2819 3.74482C38.7862 3.74482 44.2905 3.74482 49.7948 3.74482C53.4793 3.74482 57.1489 3.74482 60.8334 3.74482C61.9764 3.74482 63.1344 3.66962 63.8713 4.79755C64.3225 5.48935 64.2323 6.30146 64.2323 7.08349C64.2323 10.1214 64.2323 13.1442 64.2323 16.1821C64.2323 21.1901 64.2323 26.1981 64.2323 31.2061C64.2323 36.8157 64.2323 42.4102 64.2323 48.0198C64.2323 52.8474 64.2323 57.6599 64.2323 62.4874C64.2323 65.1493 64.2323 67.8112 64.2323 70.4882C64.2323 70.6536 64.2323 70.819 64.2323 70.9845C64.1871 72.2477 63.2246 73.2253 61.9463 73.2704C60.5026 73.3155 60.4875 75.5714 61.9463 75.5263C64.6383 75.4511 66.4731 73.3306 66.4881 70.7138C66.4881 69.8415 66.4881 68.9692 66.4881 68.112C66.4881 64.247 66.4881 60.3819 66.4881 56.5169C66.4881 51.0727 66.4881 45.6286 66.4881 40.1845C66.4881 34.5749 66.4881 28.9653 66.4881 23.3558C66.4881 19.0847 66.4881 14.7985 66.4881 10.5274C66.4881 9.33935 66.4881 8.1663 66.4881 6.97822C66.4881 5.82021 66.458 4.70732 65.8114 3.66962C64.9692 2.30107 63.4954 1.53408 61.9163 1.504C61.6606 1.504 61.42 1.504 61.1643 1.504C59.7957 1.504 58.4121 1.504 57.0436 1.504C52.0957 1.504 47.1329 1.504 42.185 1.504C36.6506 1.504 31.1313 1.504 25.5969 1.504C22.2582 1.504 18.9045 1.504 15.5659 1.504C15.3403 1.504 15.0996 1.48896 14.8741 1.504C12.7536 1.63935 10.9338 3.20341 10.603 5.32392C10.4977 5.98564 10.5428 6.6624 10.5428 7.33915C10.5428 10.5876 10.5428 13.8511 10.5428 17.0995C10.5428 22.3181 10.5428 27.5366 10.5428 32.7552C10.5428 38.4399 10.5428 44.1247 10.5428 49.8095C10.5428 54.5468 10.5428 59.2841 10.5428 64.0063C10.5428 66.2923 10.5278 68.5782 10.5428 70.8642C10.5729 73.4509 12.528 75.4661 15.1147 75.5263C15.9418 75.5413 16.784 75.5263 17.6112 75.5263C21.9875 75.5263 26.3789 75.5263 30.7553 75.5263C36.395 75.5263 42.0346 75.5263 47.6743 75.5263C51.81 75.5263 55.9608 75.5263 60.0965 75.5263C60.7131 75.5263 61.3297 75.5263 61.9463 75.5263C63.3901 75.5263 63.3901 73.2704 61.9463 73.2704Z" fill="black"/>
<path d="M56.9081 21.5208C50.2157 21.5208 43.5384 21.5208 36.846 21.5208C32.62 21.5208 28.379 21.5208 24.153 21.5208C22.995 21.5208 21.822 21.5208 20.664 21.5208C20.4835 21.5208 20.288 21.5358 20.1075 21.5208C19.3405 21.4757 19.0097 20.9192 19.0097 20.2124C19.0247 18.2723 19.0097 16.3173 19.0097 14.3772C19.0097 12.8733 18.9044 11.3243 19.0097 9.82039C19.0999 8.58719 20.2579 8.73758 21.1302 8.73758C22.4687 8.73758 23.7921 8.73758 25.1306 8.73758C33.9585 8.73758 42.7714 8.73758 51.5993 8.73758C52.9679 8.73758 54.3364 8.73758 55.705 8.73758C56.4569 8.73758 57.6149 8.54207 57.9458 9.44442C58.0962 9.86551 58.006 10.4671 58.006 10.9032C58.006 11.9559 58.006 13.0237 58.006 14.0764C58.006 16.0616 58.006 18.0618 58.006 20.047C57.9909 20.7839 57.7804 21.4907 56.9081 21.5208C55.4644 21.5809 55.4493 23.8368 56.9081 23.7766C58.773 23.6864 60.1716 22.3028 60.2468 20.4229C60.2618 19.8514 60.2468 19.28 60.2468 18.7085C60.2468 16.3473 60.2468 14.0013 60.2468 11.6401C60.2468 11.0386 60.2618 10.437 60.2468 9.83543C60.1866 8.06082 58.9083 6.63211 57.1036 6.48172C56.4269 6.42156 55.72 6.46668 55.0433 6.46668C51.1331 6.46668 47.2229 6.46668 43.3128 6.46668C38.395 6.46668 33.4772 6.46668 28.5595 6.46668C25.7772 6.46668 22.995 6.4366 20.2128 6.46668C19.2202 6.48172 18.2577 6.82762 17.596 7.57957C16.8892 8.37664 16.7388 9.3241 16.7388 10.3468C16.7388 12.5425 16.7388 14.7532 16.7388 16.9489C16.7388 18.6784 16.3327 21.1448 17.5358 22.5585C18.5134 23.7165 19.8067 23.7466 21.1603 23.7466C24.7396 23.7466 28.3038 23.7466 31.8831 23.7466C36.846 23.7466 41.8089 23.7466 46.7868 23.7466C50.0052 23.7466 53.2085 23.7466 56.4269 23.7466C56.5923 23.7466 56.7577 23.7466 56.9081 23.7466C58.3519 23.7766 58.3669 21.5208 56.9081 21.5208ZM29.8378 35.0409C33.1313 35.0409 36.4399 35.0409 39.7335 35.0409C44.9821 35.0409 50.2308 35.0409 55.4944 35.0409C56.6976 35.0409 57.9007 35.0409 59.0888 35.0409C60.5476 35.0409 60.5476 32.785 59.0888 32.785C55.7952 32.785 52.4866 32.785 49.1931 32.785C43.9444 32.785 38.6958 32.785 33.4321 32.785C32.229 32.785 31.0259 32.785 29.8378 32.785C28.379 32.785 28.379 35.0409 29.8378 35.0409ZM26.5442 26.2882C23.8974 28.935 21.2505 31.5819 18.6036 34.2288C19.13 34.2288 19.6714 34.2288 20.1978 34.2288C19.1149 33.146 18.0472 32.0782 16.9644 30.9954C15.9417 29.9727 14.3476 31.5669 15.3702 32.5895C16.453 33.6723 17.5208 34.7401 18.6036 35.8229C19.0397 36.2591 19.7616 36.2591 20.1978 35.8229C22.8446 33.1761 25.4915 30.5292 28.1384 27.8823C29.1761 26.8446 27.5819 25.2505 26.5442 26.2882ZM29.8378 45.9292C33.1313 45.9292 36.4399 45.9292 39.7335 45.9292C44.9821 45.9292 50.2308 45.9292 55.4944 45.9292C56.6976 45.9292 57.9007 45.9292 59.0888 45.9292C60.5476 45.9292 60.5476 43.6733 59.0888 43.6733C55.7952 43.6733 52.4866 43.6733 49.1931 43.6733C43.9444 43.6733 38.6958 43.6733 33.4321 43.6733C32.229 43.6733 31.0259 43.6733 29.8378 43.6733C28.379 43.6733 28.379 45.9292 29.8378 45.9292ZM26.5442 37.1764C23.8974 39.8233 21.2505 42.4702 18.6036 45.1171C19.13 45.1171 19.6714 45.1171 20.1978 45.1171C19.1149 44.0343 18.0472 42.9665 16.9644 41.8837C15.9417 40.861 14.3476 42.4552 15.3702 43.4778C16.453 44.5606 17.5208 45.6284 18.6036 46.7112C19.0397 47.1473 19.7616 47.1473 20.1978 46.7112C22.8446 44.0643 25.4915 41.4175 28.1384 38.7706C29.1761 37.7329 27.5819 36.1388 26.5442 37.1764Z" fill="black"/>
<path d="M29.8378 56.8176C33.1313 56.8176 36.4399 56.8176 39.7335 56.8176C44.9821 56.8176 50.2308 56.8176 55.4944 56.8176C56.6976 56.8176 57.9007 56.8176 59.0888 56.8176C60.5476 56.8176 60.5476 54.5618 59.0888 54.5618C55.7952 54.5618 52.4866 54.5618 49.1931 54.5618C43.9444 54.5618 38.6958 54.5618 33.4321 54.5618C32.229 54.5618 31.0259 54.5618 29.8378 54.5618C28.379 54.5618 28.379 56.8176 29.8378 56.8176ZM26.5442 48.0649C23.8974 50.7118 21.2505 53.3587 18.6036 56.0055C19.13 56.0055 19.6714 56.0055 20.1978 56.0055C19.1149 54.9227 18.0472 53.855 16.9644 52.7721C15.9417 51.7495 14.3476 53.3436 15.3702 54.3663C16.453 55.4491 17.5208 56.5169 18.6036 57.5997C19.0397 58.0358 19.7616 58.0358 20.1978 57.5997C22.8446 54.9528 25.4915 52.3059 28.1384 49.6591C29.1761 48.6214 27.5819 47.0272 26.5442 48.0649Z" fill="black"/>
<path d="M29.8378 67.7058C33.1313 67.7058 36.4399 67.7058 39.7335 67.7058C44.9821 67.7058 50.2308 67.7058 55.4944 67.7058C56.6976 67.7058 57.9007 67.7058 59.0888 67.7058C60.5476 67.7058 60.5476 65.45 59.0888 65.45C55.7952 65.45 52.4866 65.45 49.1931 65.45C43.9444 65.45 38.6958 65.45 33.4321 65.45C32.229 65.45 31.0259 65.45 29.8378 65.45C28.379 65.45 28.379 67.7058 29.8378 67.7058ZM26.5442 58.9531C23.8974 61.6 21.2505 64.2469 18.6036 66.8937C19.13 66.8937 19.6714 66.8937 20.1978 66.8937C19.1149 65.8109 18.0472 64.7431 16.9644 63.6603C15.9417 62.6377 14.3476 64.2318 15.3702 65.2545C16.453 66.3373 17.5208 67.4051 18.6036 68.4879C19.0397 68.924 19.7616 68.924 20.1978 68.4879C22.8446 65.841 25.4915 63.1941 28.1384 60.5472C29.1761 59.5095 27.5819 57.9154 26.5442 58.9531Z" fill="black"/>
</svg>
