<svg width="76" height="76" viewBox="0 0 76 76" fill="none" xmlns="http://www.w3.org/2000/svg">
<g clip-path="url(#clip0_52_583)">
<path d="M20.0014 61.4715H3.55375C2.67025 61.4715 2.37417 61.4715 2.37417 59.8707V56.0628C2.37417 55.7478 2.24906 55.4458 2.02636 55.2231C1.80366 55.0004 1.50161 54.8753 1.18667 54.8753C0.871724 54.8753 0.569679 55.0004 0.34698 55.2231C0.12428 55.4458 -0.000831123 55.7478 -0.000831123 56.0628V59.8707C-0.0903368 60.3764 -0.0638221 60.8959 0.0767126 61.3898C0.217247 61.8838 0.468132 62.3394 0.810437 62.7223C1.15274 63.1051 1.57753 63.4053 2.05275 63.6C2.52797 63.7947 3.04121 63.879 3.55375 63.8465H20.0014C20.3164 63.8465 20.6184 63.7213 20.8411 63.4986C21.0638 63.2759 21.1889 62.9739 21.1889 62.659C21.1889 62.344 21.0638 62.042 20.8411 61.8193C20.6184 61.5966 20.3164 61.4715 20.0014 61.4715ZM1.18667 52.3245C1.50161 52.3245 1.80366 52.1994 2.02636 51.9767C2.24906 51.754 2.37417 51.452 2.37417 51.137V11.883L38.3158 11.9448V31.7444C38.3158 32.0593 38.4409 32.3614 38.6636 32.5841C38.8863 32.8068 39.1884 32.9319 39.5033 32.9319C39.8183 32.9319 40.1203 32.8068 40.343 32.5841C40.5657 32.3614 40.6908 32.0593 40.6908 31.7444V11.9448C40.6967 11.3026 40.4474 10.6843 39.9976 10.2258C39.5478 9.76742 38.9343 9.50638 38.2921 9.50011H3.38117L8.812 4.90845H43.3287C43.8326 4.90845 44.3159 5.10863 44.6722 5.46494C45.0285 5.82126 45.2287 6.30454 45.2287 6.80845V30.9068C45.2287 31.2217 45.3538 31.5238 45.5765 31.7465C45.7992 31.9692 46.1012 32.0943 46.4162 32.0943C46.7311 32.0943 47.0332 31.9692 47.2559 31.7465C47.4786 31.5238 47.6037 31.2217 47.6037 30.9068V6.80845C47.6037 5.67465 47.1533 4.58728 46.3516 3.78557C45.5498 2.98385 44.4625 2.53345 43.3287 2.53345H8.37817C8.09762 2.53328 7.82609 2.63258 7.61184 2.8137L0.558086 8.7892C0.39133 8.96023 0.260982 9.16329 0.174919 9.38611C0.0646796 9.56318 0.00398487 9.76659 -0.000831123 9.97511V51.1418C0.000425372 51.4559 0.126091 51.7567 0.348654 51.9784C0.571218 52.2001 0.872546 52.3245 1.18667 52.3245Z" fill="#1A1A1A"/>
<path d="M42.9748 31.32C43.2898 31.32 43.5918 31.1949 43.8145 30.9722C44.0372 30.7495 44.1623 30.4474 44.1623 30.1325V9.5634C44.1611 8.62803 43.7894 7.73123 43.1286 7.06923C42.4677 6.40723 41.5716 6.03392 40.6362 6.03099L10.9551 5.96924C10.6401 5.96924 10.3381 6.09435 10.1154 6.31705C9.89269 6.53975 9.76758 6.84179 9.76758 7.15674C9.76758 7.47168 9.89269 7.77373 10.1154 7.99643C10.3381 8.21913 10.6401 8.34424 10.9551 8.34424L40.6378 8.40599C40.9444 8.40683 41.2381 8.52909 41.4548 8.74601C41.6714 8.96293 41.7932 9.25684 41.7937 9.5634V30.1325C41.7937 30.4463 41.9179 30.7474 42.1392 30.9699C42.3606 31.1925 42.661 31.3183 42.9748 31.32ZM59.3307 53.9268C59.0157 53.9268 58.7137 54.0519 58.491 54.2746C58.2683 54.4973 58.1432 54.7994 58.1432 55.1143V64.988C58.1454 65.2197 58.091 65.4486 57.9848 65.6546C57.3167 66.9291 54.15 71.0917 41.4833 71.0917C28.8167 71.0917 25.65 66.9339 24.9739 65.6577C24.868 65.4522 24.8136 65.224 24.8156 64.9927V55.6178C24.8156 55.3029 24.6905 55.0008 24.4678 54.7781C24.2451 54.5554 23.943 54.4303 23.6281 54.4303C23.3131 54.4303 23.0111 54.5554 22.7884 54.7781C22.5657 55.0008 22.4406 55.3029 22.4406 55.6178V64.988C22.4373 65.6041 22.5828 66.2119 22.8649 66.7597C23.9321 68.7753 27.8667 73.4667 41.4833 73.4667C55.1 73.4667 59.033 68.7801 60.0922 66.7661C60.3766 66.2184 60.5233 65.6098 60.5197 64.9927V55.1143C60.5197 54.9582 60.489 54.8037 60.4292 54.6595C60.3694 54.5153 60.2818 54.3844 60.1714 54.2741C60.0609 54.1638 59.9298 54.0763 59.7856 54.0168C59.6413 53.9572 59.4867 53.9266 59.3307 53.9268Z" fill="#1A1A1A"/>
<path d="M75.1885 43.7617L43.772 33.2673C43.5322 33.1866 43.2725 33.1866 43.0326 33.2673L7.64352 44.6135C7.40722 44.6913 7.20126 44.8412 7.05464 45.0422C6.90803 45.2431 6.82813 45.485 6.82621 45.7338C6.82428 45.9826 6.90043 46.2257 7.04392 46.4289C7.18742 46.6321 7.39103 46.7852 7.6261 46.8666L40.7178 58.0513C40.8402 58.0926 40.9685 58.114 41.0978 58.1146C41.2338 58.1144 41.3687 58.0908 41.4968 58.0449L65.7867 49.3714V55.0714C64.9679 55.3186 64.2501 55.8222 63.739 56.508C63.228 57.1938 62.9506 58.0256 62.9478 58.8809V61.2749C62.9478 62.3365 63.3695 63.3546 64.1201 64.1052C64.8708 64.8559 65.8889 65.2776 66.9504 65.2776C68.012 65.2776 69.0301 64.8559 69.7808 64.1052C70.5314 63.3546 70.9531 62.3365 70.9531 61.2749V58.8778C70.9509 58.0302 70.6793 57.2053 70.1775 56.5222C69.6758 55.8391 68.9698 55.3333 68.1617 55.0778V48.5228L75.2091 46.0068C75.4419 45.9238 75.643 45.7702 75.7843 45.5675C75.9257 45.3647 76.0002 45.1229 75.9976 44.8758C75.995 44.6286 75.9153 44.3885 75.7697 44.1888C75.6241 43.9891 75.4198 43.8398 75.1853 43.7617H75.1885ZM68.5718 61.2749C68.5718 61.7066 68.4003 62.1206 68.095 62.4259C67.7898 62.7311 67.3758 62.9026 66.9441 62.9026C66.5124 62.9026 66.0984 62.7311 65.7932 62.4259C65.4879 62.1206 65.3164 61.7066 65.3164 61.2749V58.8778C65.3164 58.664 65.3585 58.4524 65.4403 58.2549C65.5221 58.0574 65.642 57.878 65.7932 57.7268C65.9443 57.5757 66.1237 57.4558 66.3212 57.374C66.5187 57.2922 66.7304 57.2501 66.9441 57.2501C67.1578 57.2501 67.3695 57.2922 67.567 57.374C67.7645 57.4558 67.9439 57.5757 68.095 57.7268C68.2462 57.878 68.3661 58.0574 68.4479 58.2549C68.5297 58.4524 68.5718 58.664 68.5718 58.8778V61.2749ZM66.8048 46.4866L41.6092 43.768C41.4522 43.7473 41.2926 43.7582 41.1399 43.8001C40.9872 43.842 40.8444 43.914 40.7199 44.0119C40.5954 44.1098 40.4917 44.2316 40.415 44.3701C40.3383 44.5087 40.2901 44.6611 40.2732 44.8186C40.2563 44.9761 40.2711 45.1353 40.3166 45.287C40.3622 45.4387 40.4377 45.5797 40.5385 45.7018C40.6394 45.8238 40.7637 45.9245 40.904 45.9978C41.0444 46.0712 41.198 46.1157 41.3559 46.1288L61.6684 48.3201L41.0851 55.6731L11.8029 45.7741L43.3873 35.6408L71.1763 44.9238L66.8048 46.4866Z" fill="#1A1A1A"/>
</g>
<defs>
<clipPath id="clip0_52_583">
<rect width="76" height="76" fill="white"/>
</clipPath>
</defs>
</svg>
