<svg width="76" height="76" viewBox="0 0 76 76" fill="none" xmlns="http://www.w3.org/2000/svg">
<path d="M61.75 3.5625H14.25C13.5969 3.5625 13.0625 4.09688 13.0625 4.75V71.25C13.0625 71.9031 13.5969 72.4375 14.25 72.4375H61.75C62.4031 72.4375 62.9375 71.9031 62.9375 71.25V4.75C62.9375 4.09688 62.4031 3.5625 61.75 3.5625ZM60.5625 70.0625H15.4375V5.9375H60.5625V70.0625ZM43.9375 27.3125H46.9062C50.6112 27.3125 52.4756 22.7881 49.8037 20.1875C52.4637 17.5869 50.6112 13.0625 46.9062 13.0625H43.9375C43.2844 13.0625 42.75 13.5969 42.75 14.25V26.125C42.75 26.7781 43.2844 27.3125 43.9375 27.3125ZM48.6875 23.1562C48.6875 24.1419 47.8919 24.9375 46.9062 24.9375H45.125V21.375H46.9062C47.8919 21.375 48.6875 22.1706 48.6875 23.1562ZM45.125 15.4375H46.9062C47.8919 15.4375 48.6875 16.2331 48.6875 17.2188C48.6875 18.2044 47.8919 19 46.9062 19H45.125V15.4375ZM46.3125 32.0625C52.8556 32.0625 58.1875 26.7306 58.1875 20.1875C58.1875 13.6444 52.8556 8.3125 46.3125 8.3125C39.7694 8.3125 34.4375 13.6444 34.4375 20.1875C34.4375 26.7306 39.7694 32.0625 46.3125 32.0625ZM46.3125 10.6875C51.5494 10.6875 55.8125 14.9506 55.8125 20.1875C55.8125 25.4244 51.5494 29.6875 46.3125 29.6875C41.0756 29.6875 36.8125 25.4244 36.8125 20.1875C36.8125 14.9506 41.0756 10.6875 46.3125 10.6875ZM17.8125 9.5C17.8125 8.84688 18.3469 8.3125 19 8.3125H29.6875C30.3406 8.3125 30.875 8.84688 30.875 9.5C30.875 10.1531 30.3406 10.6875 29.6875 10.6875H19C18.3469 10.6875 17.8125 10.1531 17.8125 9.5ZM17.8125 14.8438C17.8125 14.1906 18.3469 13.6562 19 13.6562H29.6875C30.3406 13.6562 30.875 14.1906 30.875 14.8438C30.875 15.4969 30.3406 16.0312 29.6875 16.0312H19C18.3469 16.0312 17.8125 15.4969 17.8125 14.8438ZM17.8125 20.1875C17.8125 19.5344 18.3469 19 19 19H29.6875C30.3406 19 30.875 19.5344 30.875 20.1875C30.875 20.8406 30.3406 21.375 29.6875 21.375H19C18.3469 21.375 17.8125 20.8406 17.8125 20.1875ZM17.8125 25.5312C17.8125 24.8781 18.3469 24.3438 19 24.3438H29.6875C30.3406 24.3438 30.875 24.8781 30.875 25.5312C30.875 26.1844 30.3406 26.7188 29.6875 26.7188H19C18.3469 26.7188 17.8125 26.1844 17.8125 25.5312ZM17.8125 30.875C17.8125 30.2219 18.3469 29.6875 19 29.6875H29.6875C30.3406 29.6875 30.875 30.2219 30.875 30.875C30.875 31.5281 30.3406 32.0625 29.6875 32.0625H19C18.3469 32.0625 17.8125 31.5281 17.8125 30.875ZM17.8125 38C17.8125 37.3469 18.3469 36.8125 19 36.8125H57C57.6531 36.8125 58.1875 37.3469 58.1875 38C58.1875 38.6531 57.6531 39.1875 57 39.1875H19C18.3469 39.1875 17.8125 38.6531 17.8125 38ZM18.1569 49.0319L20.8762 46.3125L18.1569 43.5931C17.6937 43.13 17.6937 42.3819 18.1569 41.9188C18.62 41.4556 19.3681 41.4556 19.8313 41.9188L22.5506 44.6381L25.27 41.9188C25.7331 41.4556 26.4813 41.4556 26.9444 41.9188C27.4075 42.3819 27.4075 43.13 26.9444 43.5931L24.225 46.3125L26.9444 49.0319C27.6925 49.78 27.1462 51.0625 26.1012 51.0625C25.7925 51.0625 25.4956 50.9437 25.2581 50.7181L22.5387 47.9987L19.8194 50.7181C19.3563 51.1812 18.6081 51.1812 18.145 50.7181C17.6819 50.255 17.6819 49.5069 18.145 49.0438L18.1569 49.0319ZM58.1875 46.3125C58.1875 46.9656 57.6531 47.5 57 47.5H29.6875C29.0344 47.5 28.5 46.9656 28.5 46.3125C28.5 45.6594 29.0344 45.125 29.6875 45.125H57C57.6531 45.125 58.1875 45.6594 58.1875 46.3125ZM17.8125 54.625C17.8125 53.9719 18.3469 53.4375 19 53.4375H57C57.6531 53.4375 58.1875 53.9719 58.1875 54.625C58.1875 55.2781 57.6531 55.8125 57 55.8125H19C18.3469 55.8125 17.8125 55.2781 17.8125 54.625ZM18.1569 65.6569L20.8762 62.9375L18.1569 60.2181C17.6937 59.755 17.6937 59.0069 18.1569 58.5438C18.62 58.0806 19.3681 58.0806 19.8313 58.5438L22.5506 61.2631L25.27 58.5438C25.7331 58.0806 26.4813 58.0806 26.9444 58.5438C27.4075 59.0069 27.4075 59.755 26.9444 60.2181L24.225 62.9375L26.9444 65.6569C27.6925 66.405 27.1462 67.6875 26.1012 67.6875C25.7925 67.6875 25.4956 67.5687 25.2581 67.3431L22.5387 64.6237L19.8194 67.3431C19.3563 67.8063 18.6081 67.8063 18.145 67.3431C17.6819 66.88 17.6819 66.1319 18.145 65.6688L18.1569 65.6569ZM58.1875 62.9375C58.1875 63.5906 57.6531 64.125 57 64.125H29.6875C29.0344 64.125 28.5 63.5906 28.5 62.9375C28.5 62.2844 29.0344 61.75 29.6875 61.75H57C57.6531 61.75 58.1875 62.2844 58.1875 62.9375Z" fill="#231F20"/>
</svg>
